<?xml version="1.0" encoding="utf-8"?>
<!-- Generator: Adobe Illustrator 19.1.0, SVG Export Plug-In . SVG Version: 6.00 Build 0)  -->
<!DOCTYPE svg PUBLIC "-//W3C//DTD SVG 1.1//EN" "http://www.w3.org/Graphics/SVG/1.1/DTD/svg11.dtd">
<svg version="1.1" id="Layer_1" xmlns="http://www.w3.org/2000/svg" xmlns:xlink="http://www.w3.org/1999/xlink" x="0px" y="0px"
	 viewBox="0 0 792 612" enable-background="new 0 0 792 612" xml:space="preserve">
<path fill="#E81C4B" d="M435.1,183.8c0-4.2,1.5-9.6-3.8-10.3c-5.4-0.8-11.5-0.8-13.8,1.5c-2.3,2.3-4.2,5.4-3.8,9.6s1.1,6.9,4.2,8
	c3.1,1.1,12.6,1.9,14.6,0.8C434.3,192.2,435.1,183.8,435.1,183.8z"/>
<path fill="#00AEEF" d="M389.8,189.2c0-3.5,1.3-7.9-3.2-8.5c-4.4-0.6-9.5-0.6-11.3,1.3c-1.9,1.9-3.5,4.4-3.2,7.9
	c0.3,3.5,0.9,5.7,3.5,6.6s10.4,1.6,12,0.6C389.1,196.1,389.8,189.2,389.8,189.2z"/>
<path d="M339.4,200.6c-0.2-0.8-0.2-4.6-0.1-5.5c0.6-4,0.9-5.7,1.2-9.6c0.3-4.7,2.1-9.2,3.9-13.3c2.6-5.7,4.8-11.9,9.8-16.3
	c3.6-3.2,7-6.5,10.6-9.6c1.5-1.2,3.3-2.1,5-2.9c1.3-0.6,2.1-1.3,1.9-2.8c-0.3-2-0.7-3.9-1.2-5.9c-0.7-2.6-0.6-5.8-1.9-8.7
	c-2.2-5-2.4-9.7-3.5-14.9c-0.5-2.7-1.4-5.5-1.4-8.3c0-2.3-0.6-4.2-0.6-6.5c0-0.6-0.5-1.3-1-1.7c-1.6-1.3-2.5-3-4.3-4.1
	c-3.1-1.9-5.5-4.9-4.7-8.8c0.5-2.3,0.4-2.5,1.2-4.8c0.8-2.5,4.5-5.1,8.3-4.8c3,0.3,4.2-0.1,6.4,1.9c0.8,0.7,2.1,2.8,2.4,3.9
	c0.6,2.6,0.6,4.3-0.8,6.8c-1.2,2.3-1.3,4.6,0.1,7.1c1.6,2.9,2.1,6.3,2.5,9.7c0.4,3.2,1.4,6.3,2.2,9.4c0.7,2.8,1.6,5.6,2.3,8.5
	c0.8,2.9,1.5,5.9,2.2,8.9c0.4,1.8,1.3,3.2,2.7,4.4c1.5,1.2,2.8,2.8,4.5,3.5c1.9,0.7,4.2,0.8,6.3,0.8c2.9,0,5.8-0.4,8.8-0.5
	c2.2-0.1,4.5-0.2,6.7,0c1.7,0.1,3.4,0.7,5.2,0.8c3.5,0.3,7.1,0.5,10.6,0.6c1.9,0,2.6-0.9,2.9-2.7c0.4-2.1,1-4.1,1.5-6.2
	c1.1-4.9,2.4-14.4,2.7-16.2c0-0.2,0.1-0.4,0.1-0.7c0.3-1.4,1.7-7.1,3.6-11.7c0.1-0.2,0.1-0.3,0.2-0.5c1.1-3.3,2.4-6.7,1.9-9.8
	c-0.3-1.8,0.2-3.7,0.1-5.6c-0.1-1.4-0.7-2.8-1-4.2c-0.3-1.3-0.7-2.7-0.5-4c0.4-2.4-0.1-5.9,1.7-7.8c2.4-2.5,2-2.8,4.9-4.8
	c2.3-1.6,10-2.3,12.4,0c1.3,1.3,2.3,2.2,3.4,3.5c0.7,0.7,1.2,1.5,1.5,2.4c1.1,3,0.4,6.9-2.1,9c-1.1,1-1.7,1.8-2.9,2.7
	c-1.3,1-2.8,2-3.8,3.3c-1.4,1.9-3.5,3.4-4.6,5.5c-0.5,0.9-0.9,2-1,3c-0.2,4.3-1.4,8.2-3.1,12.1c-0.8,1.9-1.2,4.1-1.5,6.2
	c-0.6,3.5-0.8,7.1-1.6,10.5c-1.1,5-2.6,9.8-3.9,14.8c-0.1,0.4-0.1,0.9-0.2,1.4c-0.2,1.4,0.2,2.1,1.5,2.9c2.3,1.4,4.6,3,6.7,4.8
	c3.4,3,7,6,9.9,9.5c2.7,3.3,5.3,6.8,6.7,11c1.1,3.2,2.5,6.3,3.7,9.4c0.4,0.9,0.6,1.9,0.7,2.9c0.6,4.6,1.1,9.2,1.8,13.8
	c0.8,5.1-0.4,9.5-3.4,13.7c-2.7,3.8-5.6,7.6-9.4,10.4c-3.4,2.5-6.4,5.4-9.8,7.7c-3.1,2.1-5.6,4.9-9.4,6.1c-3.5,1.1-5.7,4.3-8.5,6.5
	c-1.2,0.9-2.5,1.7-3.7,2.6c-3,2.2-6,4.5-9,6.8c-1.3,1-2.6,2.1-4.2,2.5c-0.7,0.2-1.3,0.4-2,0.7c-3.4,1.7-6.1-0.4-8.8-2.4
	c-3.8-2.8-7.5-5.8-11.5-8.4c-4.5-2.9-8.8-6.3-13.9-8.2c-2.3-1.1-3.7-2.1-6.4-3.9c-0.8-0.5-2.8-1.5-3.7-2c-1-0.6-2.2-1-3.1-1.7
	c-4.9-3.6-9.7-7.3-14.6-10.8c-0.8-0.6-1.7-1.1-2.5-1.6c-1.3-0.8-2.1-1.8-2.3-3.3C340.1,204.8,339.9,203,339.4,200.6z M347.9,193.1
	c0,1.3-0.1,2.7,0,4c0.4,3.2,1.2,6.2,3.2,7.7c0.9,0.7,1.9,1.3,3.1,1.9c4.4,2.3,7.6,4.1,11.7,6.9c0.8,0.5,1.5,1.3,2.2,1.9
	c1.5,1.2,2.9,2.6,4.5,3.7c4.6,3.1,9.4,6,14,9c1.2,0.8,2.5,1.6,3.7,2.4c2.9,1.8,6,4.1,6.6,4.6c3.8,2.9,8.3,4.7,11.2,2.5
	c2.4-1.7,3.6-2.5,6-4.3c1.7-1.3,3.2-2.9,4.9-4.2c2.1-1.6,4.4-2.8,6.5-4.4c3.3-2.4,6.5-5,9.8-7.6c1.5-1.2,2.9-2.5,4.3-3.7
	c0.7-0.6,1.3-1.2,1.9-1.8c2.2-2,4.5-3.7,6.5-5.9c1.8-2.1,3.8-3.9,6.1-5.5c0.7-0.5,1.2-1.3,1.6-2.3c0.9-1.9,1.5-5.2,1.4-7.3
	c0-0.9,0-1.8-0.1-2.7c-0.1-2.1-0.4-4.1-0.9-6.1c-0.4-1.7-0.9-3.3-1.5-4.9c-0.6-1.6-1.3-3.2-2.1-4.8c-0.6-1.3-1.3-2.6-1.9-4
	c-0.3-0.7-1.6-2.6-2.1-3.1c-2.7-2.6-4.3-4.4-7.2-6.8c-1.6-1.3-3.4-2.3-5.1-3.5c-1.2-0.8-2.3-1.8-3.5-2.5c-1.9-1-4-1.9-6-2.8
	c-1.6-0.7-3.2-1.5-4.8-1.7c-6.2-0.5-12.3-0.9-18.5-1.1c-5-0.1-10,0.4-15,0.5c-2.4,0.1-4.8-0.1-7.2,0.1c-5.9,0.5-10.1,4.4-14.4,7.8
	c-1.5,1.1-2.6,2.6-4,3.9c-1.2,1.1-2.7,1.9-3.7,3c-2,2.3-3.9,4.8-5.6,7.4c-1.3,1.9-2.5,3.9-3.2,6.1
	C348.6,181.3,347.8,187.2,347.9,193.1z"/>
<path d="M364.9,277.9c-4.3-0.1-7.8,0.2-12,0c-2.1-0.1-4.2-0.8-6.3-1.5c-3.6-1.2-5.3-3.8-5.4-7.3c-0.1-4.2-0.3-8.4-0.8-12.5
	c-0.6-5.1-0.4-10,0.9-15c0.4-1.4,1.1-2.1,2.6-2.2c2.1-0.1,3.9,0.3,5.9,1.3c2.8,1.3,5.3,3,7.9,4.6c4.1,2.5,8.4,4.7,12.4,7.2
	c4.6,2.9,9,6.1,13.4,9.3c2.4,1.8,2.8,4.7,3.4,7.4c0.2,1.1,0.2,2.3,0.1,3.4c-0.2,2.2-1,2.7-3.1,3.5c-5.9,2.3-7.2,1.2-13.3,1.7
	C368.3,277.8,366,277.8,364.9,277.9z M377.6,268.9c0.3-0.9-4-5.9-8.3-6.6c-1.8-0.3-3.5-0.9-4.9-2.1c-2.6-2.2-6.9-3.3-9.9-5.8
	c-1.5-1.3-2.9-2-4.9-2c-0.9,0-1.3,0.2-1.5,1.2c-0.8,4.8-0.8,9.5,1.6,14c0.8,1.5,1.7,2.2,3.3,2.3c2.2,0.1,4.4,0.1,6.6,0.2
	c3.1,0.1,6.2,0.1,9.3,0.5C372,271,377.3,270.4,377.6,268.9z"/>
<path d="M451.5,279.3c-2.3,0-2.9,0.2-5.2-0.1c-3-0.4-6-1.1-9.1-1.7c-2-0.4-3.9-0.6-5.9-1c-1.8-0.4-3.8-0.5-5.3-1.4
	c-3.3-1.9-3.9-5.2-1.9-8.5c2.9-4.8,6.5-9.1,10.9-12.6c3.2-2.6,6.6-5,9.8-7.5c1.7-1.3,4.5-2.6,6.1-4.1c2.6-2.4,7.1-2.9,10.4-2.2
	c1.9,0.4,3.9,2.2,4.4,4.1c2,7.7,1.2,14.9,1.6,23c0.1,1.9,0.1,3.7,0.3,5.6c0.5,4.4-2.2,5.5-5.9,6.1c-2.8,0.4-4.3,0.3-7.2,0.3
	C453.7,279.3,452.1,279.3,451.5,279.3z M449.3,269.8c0.5,0,1.2,0,2.6,0c0.9,0,1.8,0,2.4,0c2.9-0.1,3.5-1.1,3.1-3.9
	c-0.4-2.9-0.1-5.7-0.5-8.6c-0.2-1.4-0.2-3.7-0.8-5c-0.6-1.1-4.5-0.7-5.8,0c-4.3,2.4-8.7,4.7-12.3,8.2c-1.7,1.6-3.2,3.5-4.6,5.4
	c-1.3,1.8-0.3,3.4,1.9,3.5C441,269.5,443.6,269.6,449.3,269.8z"/>
<path d="M439.9,184.6c0,2.5-0.1,5,0,7.5c0.1,1.3,0,3,0,4.4c0.1,3-2.1,5.1-4.8,4.9c-2.8-0.2-3.3-0.1-6.1-0.3
	c-3.2-0.2-4.7-0.1-7.9-0.1c-1.2,0-4.8,0-6.1,0c-3.7-0.1-6.5-1.5-6.2-5.6c0.4-5.7,1.1-11.4,2-17.1c0.5-3.2,1.1-6.4,2.5-9.3
	c2.7-5.4,10.4-7.9,15.8-5.2c2.1,1,3.9,3,5.5,4.8C438.7,173.1,439.4,178.2,439.9,184.6z M430.6,186.5c0-4.5-0.4-9-2.3-11
	c-3.5-3.7-8-1.8-9.4,3.1c-0.9,3.2-0.9,6.7-1.4,10.1c-0.2,1.7,0.6,3.2,2.1,3.1c2.4-0.2,4.9-0.5,7.3-0.5
	C430.3,191.4,430.6,190,430.6,186.5z"/>
<path d="M382.5,174.9c4.6-0.4,7.9,1.6,9.5,6.1c0.9,2.6,1.4,5.3,2.1,8c0.3,1.4,0.4,2.8,0.8,4.1c0.8,3,0.3,5.8-2.6,7.1
	c-1.3,0.6-3.7,0.2-5.6,0c-4.3-0.5-4.5-0.5-8.4-0.6c-2.3,0-3.7,0-5.9,0.1c-0.6,0-3.7,0.4-4.9-0.3c-1.7-1-1.8-2.8-1.5-4.9
	c0.3-2.1,1-3.8,1.6-5.9c1.1-4.2,3.5-7.6,6.7-10.7C376.6,175.6,379.2,174.8,382.5,174.9z M382.8,182.8c-1.1,0.2-3,0.4-4,0.9
	c-2.8,1.7-3.9,4.2-3.7,7.5c0,0.4,1.2,1.2,1.5,1.2c2.3,0.1,2.3-0.1,5.3-0.1c3.4-0.1,7.2,1.3,7-2c0-0.6-0.2-2.1-0.3-2.8
	C387.6,183.7,386.8,183,382.8,182.8z"/>
<path d="M466.3,298.6c-1.6-1.2-3.8-2.1-7-2.2c-7.4-0.2-37.1,0.8-42.6,1.1c-5.5,0.3-36.1,1.4-39.1,1.4s-16.7-0.3-20.5-0.5
	c-3.8-0.3-10.4,0.7-12.3,1.3s-5.1,3.3-5.3,5.5s0,10.2,1.2,12.5c1.2,2.3,4.9,6.6,10,7s24.2-0.4,32.8-0.2c8.6,0.2,33,0.4,37.3,0.4
	c4.3,0,21.5-0.4,25.4,0c3.9,0.4,13.3,0.2,15.4-0.8c2-1,5.5-2.7,5.9-10.7C467.9,305.4,467.9,299.8,466.3,298.6z M458.3,309.9
	c0,0,0,3.1,0,4.9s-4.5,1.6-5.9,1.8c-1.4,0.2-14.1-0.2-18.2-0.4c-4.1-0.2-27.4,0-29.3,0c-1.8,0-27-0.4-30.1-0.6
	c-3.1-0.2-19.9,0.8-21.9,0.4c-2-0.4-3.5-1-3.5-3.3s0-4.3,1-5.3c1-1,2.5-0.4,4.3-0.6s8.6,0.8,11.3,0.8s17.2-0.8,20.1-0.8
	s22.3-1,24.6-1.2s11.3-0.4,13.3-0.2s16,0.4,17.8,0s13.3-0.6,15.6,0.2C459.5,306.4,458.3,308.2,458.3,309.9z"/>
</svg>
