<?xml version="1.0" encoding="utf-8"?>
<!-- Generator: Adobe Illustrator 19.1.0, SVG Export Plug-In . SVG Version: 6.00 Build 0)  -->
<!DOCTYPE svg PUBLIC "-//W3C//DTD SVG 1.1//EN" "http://www.w3.org/Graphics/SVG/1.1/DTD/svg11.dtd">
<svg version="1.1" id="Layer_1" xmlns="http://www.w3.org/2000/svg" xmlns:xlink="http://www.w3.org/1999/xlink" x="0px" y="0px"
	 viewBox="11 91 308 612" enable-background="new 11 91 308 612" xml:space="preserve">
<path fill="#E81C4B" d="M235.2,371.6c0-9.2,3.3-21-8.3-22.6c-11.8-1.8-25.2-1.8-30.2,3.3c-5,5-9.2,11.8-8.3,21
	c0.9,9.2,2.4,15.1,9.2,17.5s27.6,4.2,32,1.8C233.5,390,235.2,371.6,235.2,371.6z"/>
<path fill="#00AEEF" d="M136,383.4c0-7.7,2.8-17.3-7-18.6c-9.6-1.3-20.8-1.3-24.8,2.8c-4.2,4.2-7.7,9.6-7,17.3
	c0.7,7.7,2,12.5,7.7,14.5c5.7,2,22.8,3.5,26.3,1.3C134.5,398.5,136,383.4,136,383.4z"/>
<path d="M25.6,408.4c-0.4-1.8-0.4-10.1-0.2-12c1.3-8.8,2-12.5,2.6-21c0.7-10.3,4.6-20.2,8.5-29.1c5.7-12.5,10.5-26.1,21.5-35.7
	c7.9-7,15.3-14.2,23.2-21c3.3-2.6,7.2-4.6,11-6.4c2.8-1.3,4.6-2.8,4.2-6.1c-0.7-4.4-1.5-8.5-2.6-12.9c-1.5-5.7-1.3-12.7-4.2-19.1
	c-4.8-11-5.3-21.2-7.7-32.6c-1.1-5.9-3.1-12-3.1-18.2c0-5-1.3-9.2-1.3-14.2c0-1.3-1.1-2.8-2.2-3.7c-3.5-2.8-5.5-6.6-9.4-9
	c-6.8-4.2-12-10.7-10.3-19.3c1.1-5,0.9-5.5,2.6-10.5c1.8-5.5,9.9-11.2,18.2-10.5c6.6,0.7,9.2-0.2,14,4.2c1.8,1.5,4.6,6.1,5.3,8.5
	c1.3,5.7,1.3,9.4-1.8,14.9c-2.6,5-2.8,10.1,0.2,15.6c3.5,6.4,4.6,13.8,5.5,21.2c0.9,7,3.1,13.8,4.8,20.6c1.5,6.1,3.5,12.3,5,18.6
	c1.8,6.4,3.3,12.9,4.8,19.5c0.9,3.9,2.8,7,5.9,9.6c3.3,2.6,6.1,6.1,9.9,7.7c4.2,1.5,9.2,1.8,13.8,1.8c6.4,0,12.7-0.9,19.3-1.1
	c4.8-0.2,9.9-0.4,14.7,0c3.7,0.2,7.4,1.5,11.4,1.8c7.7,0.7,15.6,1.1,23.2,1.3c4.2,0,5.7-2,6.4-5.9c0.9-4.6,2.2-9,3.3-13.6
	c2.4-10.7,5.3-31.5,5.9-35.5c0-0.4,0.2-0.9,0.2-1.5c0.7-3.1,3.7-15.6,7.9-25.6c0.2-0.4,0.2-0.7,0.4-1.1c2.4-7.2,5.3-14.7,4.2-21.5
	c-0.7-3.9,0.4-8.1,0.2-12.3c-0.2-3.1-1.5-6.1-2.2-9.2c-0.7-2.8-1.5-5.9-1.1-8.8c0.9-5.3-0.2-12.9,3.7-17.1
	c5.3-5.5,4.4-6.1,10.7-10.5c5-3.5,21.9-5,27.2,0c2.8,2.8,5,4.8,7.4,7.7c1.5,1.5,2.6,3.3,3.3,5.3c2.4,6.6,0.9,15.1-4.6,19.7
	c-2.4,2.2-3.7,3.9-6.4,5.9c-2.8,2.2-6.1,4.4-8.3,7.2c-3.1,4.2-7.7,7.4-10.1,12c-1.1,2-2,4.4-2.2,6.6c-0.4,9.4-3.1,18-6.8,26.5
	c-1.8,4.2-2.6,9-3.3,13.6c-1.3,7.7-1.8,15.6-3.5,23c-2.4,11-5.7,21.5-8.5,32.4c-0.2,0.9-0.2,2-0.4,3.1c-0.4,3.1,0.4,4.6,3.3,6.4
	c5,3.1,10.1,6.6,14.7,10.5c7.4,6.6,15.3,13.1,21.7,20.8c5.9,7.2,11.6,14.9,14.7,24.1c2.4,7,5.5,13.8,8.1,20.6c0.9,2,1.3,4.2,1.5,6.4
	c1.3,10.1,2.4,20.2,3.9,30.2c1.8,11.2-0.9,20.8-7.4,30c-5.9,8.3-12.3,16.6-20.6,22.8c-7.4,5.5-14,11.8-21.5,16.9
	c-6.8,4.6-12.3,10.7-20.6,13.4c-7.7,2.4-12.5,9.4-18.6,14.2c-2.6,2-5.5,3.7-8.1,5.7c-6.6,4.8-13.1,9.9-19.7,14.9
	c-2.8,2.2-5.7,4.6-9.2,5.5c-1.5,0.4-2.8,0.9-4.4,1.5c-7.4,3.7-13.4-0.9-19.3-5.3c-8.3-6.1-16.4-12.7-25.2-18.4
	c-9.9-6.4-19.3-13.8-30.5-18c-5-2.4-8.1-4.6-14-8.5c-1.8-1.1-6.1-3.3-8.1-4.4c-2.2-1.3-4.8-2.2-6.8-3.7c-10.7-7.9-21.2-16-32-23.7
	c-1.8-1.3-3.7-2.4-5.5-3.5c-2.8-1.8-4.6-3.9-5-7.2C27.1,417.6,26.7,413.6,25.6,408.4z M44.2,391.9c0,2.8-0.2,5.9,0,8.8
	c0.9,7,2.6,13.6,7,16.9c2,1.5,4.2,2.8,6.8,4.2c9.6,5,16.6,9,25.6,15.1c1.8,1.1,3.3,2.8,4.8,4.2c3.3,2.6,6.4,5.7,9.9,8.1
	c10.1,6.8,20.6,13.1,30.7,19.7c2.6,1.8,5.5,3.5,8.1,5.3c6.4,3.9,13.1,9,14.5,10.1c8.3,6.4,18.2,10.3,24.5,5.5
	c5.3-3.7,7.9-5.5,13.1-9.4c3.7-2.8,7-6.4,10.7-9.2c4.6-3.5,9.6-6.1,14.2-9.6c7.2-5.3,14.2-11,21.5-16.6c3.3-2.6,6.4-5.5,9.4-8.1
	c1.5-1.3,2.8-2.6,4.2-3.9c4.8-4.4,9.9-8.1,14.2-12.9c3.9-4.6,8.3-8.5,13.4-12c1.5-1.1,2.6-2.8,3.5-5c2-4.2,3.3-11.4,3.1-16
	c0-2,0-3.9-0.2-5.9c-0.2-4.6-0.9-9-2-13.4c-0.9-3.7-2-7.2-3.3-10.7c-1.3-3.5-2.8-7-4.6-10.5c-1.3-2.8-2.8-5.7-4.2-8.8
	c-0.7-1.5-3.5-5.7-4.6-6.8c-5.9-5.7-9.4-9.6-15.8-14.9c-3.5-2.8-7.4-5-11.2-7.7c-2.6-1.8-5-3.9-7.7-5.5c-4.2-2.2-8.8-4.2-13.1-6.1
	c-3.5-1.5-7-3.3-10.5-3.7c-13.6-1.1-26.9-2-40.5-2.4c-11-0.2-21.9,0.9-32.9,1.1c-5.3,0.2-10.5-0.2-15.8,0.2
	c-12.9,1.1-22.1,9.6-31.5,17.1c-3.3,2.4-5.7,5.7-8.8,8.5c-2.6,2.4-5.9,4.2-8.1,6.6c-4.4,5-8.5,10.5-12.3,16.2
	c-2.8,4.2-5.5,8.5-7,13.4C45.8,366.1,44,379,44.2,391.9z"/>
<path d="M81.5,577.7c-9.4-0.2-17.1,0.4-26.3,0c-4.6-0.2-9.2-1.8-13.8-3.3c-7.9-2.6-11.6-8.3-11.8-16c-0.2-9.2-0.7-18.4-1.8-27.4
	c-1.3-11.2-0.9-21.9,2-32.9c0.9-3.1,2.4-4.6,5.7-4.8c4.6-0.2,8.5,0.7,12.9,2.8c6.1,2.8,11.6,6.6,17.3,10.1
	c9,5.5,18.4,10.3,27.2,15.8c10.1,6.4,19.7,13.4,29.4,20.4c5.3,3.9,6.1,10.3,7.4,16.2c0.4,2.4,0.4,5,0.2,7.4
	c-0.4,4.8-2.2,5.9-6.8,7.7c-12.9,5-15.8,2.6-29.1,3.7C88.9,577.5,83.9,577.5,81.5,577.7z M109.3,558c0.7-2-8.8-12.9-18.2-14.5
	c-3.9-0.7-7.7-2-10.7-4.6c-5.7-4.8-15.1-7.2-21.7-12.7c-3.3-2.8-6.4-4.4-10.7-4.4c-2,0-2.8,0.4-3.3,2.6c-1.8,10.5-1.8,20.8,3.5,30.7
	c1.8,3.3,3.7,4.8,7.2,5c4.8,0.2,9.6,0.2,14.5,0.4c6.8,0.2,13.6,0.2,20.4,1.1C97,562.6,108.6,561.3,109.3,558z"/>
<path d="M271.2,580.8c-5,0-6.4,0.4-11.4-0.2c-6.6-0.9-13.1-2.4-19.9-3.7c-4.4-0.9-8.5-1.3-12.9-2.2c-3.9-0.9-8.3-1.1-11.6-3.1
	c-7.2-4.2-8.5-11.4-4.2-18.6c6.4-10.5,14.2-19.9,23.9-27.6c7-5.7,14.5-11,21.5-16.4c3.7-2.8,9.9-5.7,13.4-9
	c5.7-5.3,15.6-6.4,22.8-4.8c4.2,0.9,8.5,4.8,9.6,9c4.4,16.9,2.6,32.6,3.5,50.4c0.2,4.2,0.2,8.1,0.7,12.3c1.1,9.6-4.8,12-12.9,13.4
	c-6.1,0.9-9.4,0.7-15.8,0.7C276,580.8,272.5,580.8,271.2,580.8z M266.4,560c1.1,0,2.6,0,5.7,0c2,0,3.9,0,5.3,0
	c6.4-0.2,7.7-2.4,6.8-8.5c-0.9-6.4-0.2-12.5-1.1-18.8c-0.4-3.1-0.4-8.1-1.8-11c-1.3-2.4-9.9-1.5-12.7,0c-9.4,5.3-19.1,10.3-26.9,18
	c-3.7,3.5-7,7.7-10.1,11.8c-2.8,3.9-0.7,7.4,4.2,7.7C248.2,559.3,253.9,559.5,266.4,560z"/>
<path d="M245.8,373.3c0,5.5-0.2,11,0,16.4c0.2,2.8,0,6.6,0,9.6c0.2,6.6-4.6,11.2-10.5,10.7c-6.1-0.4-7.2-0.2-13.4-0.7
	c-7-0.4-10.3-0.2-17.3-0.2c-2.6,0-10.5,0-13.4,0c-8.1-0.2-14.2-3.3-13.6-12.3c0.9-12.5,2.4-25,4.4-37.5c1.1-7,2.4-14,5.5-20.4
	c5.9-11.8,22.8-17.3,34.6-11.4c4.6,2.2,8.5,6.6,12,10.5C243.1,348.1,244.7,359.3,245.8,373.3z M225.4,377.5c0-9.9-0.9-19.7-5-24.1
	c-7.7-8.1-17.5-3.9-20.6,6.8c-2,7-2,14.7-3.1,22.1c-0.4,3.7,1.3,7,4.6,6.8c5.3-0.4,10.7-1.1,16-1.1
	C224.7,388.2,225.4,385.1,225.4,377.5z"/>
<path d="M120,352.1c10.1-0.9,17.3,3.5,20.8,13.4c2,5.7,3.1,11.6,4.6,17.5c0.7,3.1,0.9,6.1,1.8,9c1.8,6.6,0.7,12.7-5.7,15.6
	c-2.8,1.3-8.1,0.4-12.3,0c-9.4-1.1-9.9-1.1-18.4-1.3c-5,0-8.1,0-12.9,0.2c-1.3,0-8.1,0.9-10.7-0.7c-3.7-2.2-3.9-6.1-3.3-10.7
	c0.7-4.6,2.2-8.3,3.5-12.9c2.4-9.2,7.7-16.6,14.7-23.4C107.1,353.6,112.8,351.8,120,352.1z M120.7,369.4c-2.4,0.4-6.6,0.9-8.8,2
	c-6.1,3.7-8.5,9.2-8.1,16.4c0,0.9,2.6,2.6,3.3,2.6c5,0.2,5-0.2,11.6-0.2c7.4-0.2,15.8,2.8,15.3-4.4c0-1.3-0.4-4.6-0.7-6.1
	C131.2,371.3,129.4,369.8,120.7,369.4z"/>
<path d="M303.6,623.1c-3.5-2.6-8.3-4.6-15.3-4.8c-16.2-0.4-81.3,1.8-93.3,2.4c-12,0.7-79.1,3.1-85.7,3.1c-6.6,0-36.6-0.7-44.9-1.1
	c-8.3-0.7-22.8,1.5-26.9,2.8s-11.2,7.2-11.6,12c-0.4,4.8,0,22.3,2.6,27.4c2.6,5,10.7,14.5,21.9,15.3s53-0.9,71.9-0.4
	c18.8,0.4,72.3,0.9,81.7,0.9c9.4,0,47.1-0.9,55.6,0c8.5,0.9,29.1,0.4,33.7-1.8c4.4-2.2,12-5.9,12.9-23.4
	C307.1,638,307.1,625.7,303.6,623.1z M286.1,647.8c0,0,0,6.8,0,10.7c0,3.9-9.9,3.5-12.9,3.9c-3.1,0.4-30.9-0.4-39.9-0.9
	c-9-0.4-60,0-64.2,0c-3.9,0-59.1-0.9-65.9-1.3s-43.6,1.8-48,0.9s-7.7-2.2-7.7-7.2s0-9.4,2.2-11.6s5.5-0.9,9.4-1.3s18.8,1.8,24.8,1.8
	c5.9,0,37.7-1.8,44-1.8c6.4,0,48.9-2.2,53.9-2.6c5-0.4,24.8-0.9,29.1-0.4c4.4,0.4,35.1,0.9,39,0c3.9-0.9,29.1-1.3,34.2,0.4
	C288.7,640.1,286.1,644.1,286.1,647.8z"/>
</svg>
